<?xml version="1.0" standalone="no"?>
<svg xmlns="http://www.w3.org/2000/svg" viewBox="0 0 1440 320">
    <path fill="#0099ff" fill-opacity="1" d="M0,224L0,256L36.9,256L36.9,32L73.8,32L73.8,128L110.8,128L110.8,64L147.7,64L147.7,224L184.6,224L184.6,224L221.5,224L221.5,160L258.5,160L258.5,160L295.4,160L295.4,288L332.3,288L332.3,288L369.2,288L369.2,160L406.2,160L406.2,128L443.1,128L443.1,128L480,128L480,192L516.9,192L516.9,128L553.8,128L553.8,0L590.8,0L590.8,288L627.7,288L627.7,320L664.6,320L664.6,64L701.5,64L701.5,256L738.5,256L738.5,128L775.4,128L775.4,64L812.3,64L812.3,288L849.2,288L849.2,32L886.2,32L886.2,288L923.1,288L923.1,64L960,64L960,64L996.9,64L996.9,0L1033.8,0L1033.8,192L1070.8,192L1070.8,96L1107.7,96L1107.7,0L1144.6,0L1144.6,160L1181.5,160L1181.5,128L1218.5,128L1218.5,32L1255.4,32L1255.4,160L1292.3,160L1292.3,64L1329.2,64L1329.2,288L1366.2,288L1366.2,224L1403.1,224L1403.1,288L1440,288L1440,320L1403.1,320L1403.1,320L1366.2,320L1366.2,320L1329.2,320L1329.2,320L1292.3,320L1292.3,320L1255.4,320L1255.4,320L1218.5,320L1218.5,320L1181.5,320L1181.5,320L1144.6,320L1144.6,320L1107.7,320L1107.7,320L1070.8,320L1070.8,320L1033.8,320L1033.8,320L996.9,320L996.9,320L960,320L960,320L923.1,320L923.1,320L886.2,320L886.2,320L849.2,320L849.2,320L812.3,320L812.3,320L775.4,320L775.4,320L738.5,320L738.5,320L701.5,320L701.5,320L664.6,320L664.6,320L627.7,320L627.7,320L590.8,320L590.8,320L553.8,320L553.8,320L516.9,320L516.9,320L480,320L480,320L443.1,320L443.1,320L406.2,320L406.2,320L369.2,320L369.2,320L332.3,320L332.3,320L295.4,320L295.4,320L258.5,320L258.5,320L221.5,320L221.5,320L184.6,320L184.6,320L147.7,320L147.7,320L110.8,320L110.8,320L73.8,320L73.8,320L36.9,320L36.9,320L0,320L0,320Z"></path>
</svg>